<svg id="visual" viewBox="0 0 900 600" width="900" height="600" xmlns="http://www.w3.org/2000/svg" xmlns:xlink="http://www.w3.org/1999/xlink" version="1.1"><rect x="0" y="0" width="900" height="600" fill="#FFFFFF"></rect><g transform="translate(437.6615582114558 282.2015562683985)"><path d="M127.2 -136.3C176.5 -110.3 236 -81.2 253.1 -36.8C270.3 7.6 245.1 67.3 212.4 121.4C179.7 175.5 139.4 224 89.6 239.2C39.7 254.3 -19.8 236.2 -58 203.3C-96.2 170.3 -113.1 122.7 -144.8 78.4C-176.6 34.1 -223.2 -6.7 -232.3 -55.9C-241.4 -105 -212.9 -162.4 -168 -189.2C-123 -215.9 -61.5 -212 -11.2 -198.5C39 -185.1 78 -162.3 127.2 -136.3" fill="#04ba00"></path></g></svg>