<svg id="visual" viewBox="0 0 900 600" width="900" height="600" xmlns="http://www.w3.org/2000/svg" xmlns:xlink="http://www.w3.org/1999/xlink" version="1.1"><rect x="0" y="0" width="900" height="600" fill="#FFFFFF"></rect><g transform="translate(456.67707450959534 308.46227055504005)"><path d="M96.1 -128.2C128 -87.8 159.5 -60.8 182.8 -18.9C206.2 23 221.3 79.8 199.9 114.2C178.6 148.6 120.8 160.8 66.4 179.1C12.1 197.3 -38.8 221.8 -92.6 218C-146.3 214.1 -203.1 182.1 -218.7 135.7C-234.3 89.2 -208.7 28.5 -190.6 -26.5C-172.5 -81.5 -161.8 -130.8 -131.2 -171.4C-100.7 -212 -50.4 -244 -9.1 -233.2C32.1 -222.3 64.3 -168.6 96.1 -128.2" fill="#4fd0f7"></path></g></svg>