<svg id="visual" viewBox="0 0 900 600" width="900" height="600" xmlns="http://www.w3.org/2000/svg" xmlns:xlink="http://www.w3.org/1999/xlink" version="1.1"><rect x="0" y="0" width="900" height="600" fill="#FFFFFF"></rect><g transform="translate(479.24423014357836 253.69662404960025)"><path d="M85.4 -118.2C112 -98.2 135.9 -75.1 149.6 -45.6C163.3 -16.2 166.8 19.6 167.9 66.5C169.1 113.5 168 171.6 139.7 212.4C111.3 253.2 55.6 276.6 0.1 276.5C-55.4 276.3 -110.9 252.6 -148.5 214.8C-186 177 -205.7 125.1 -217 74.3C-228.3 23.5 -231.1 -26.3 -217.9 -72C-204.8 -117.8 -175.6 -159.6 -136.6 -175.6C-97.6 -191.6 -48.8 -181.8 -9.7 -168.5C29.4 -155.1 58.8 -138.2 85.4 -118.2" fill="#ba0058"></path></g></svg>